<?xml version="1.0" encoding="utf-8"?>
<!-- Generator: Adobe Illustrator 25.0.1, SVG Export Plug-In . SVG Version: 6.00 Build 0)  -->
<svg version="1.1" id="Layer_1" xmlns="http://www.w3.org/2000/svg" xmlns:xlink="http://www.w3.org/1999/xlink" x="0px" y="0px"
	 viewBox="0 0 194.28 74.4" style="enable-background:new 0 0 194.28 74.4;" xml:space="preserve">
<style type="text/css">
	.st0{fill:#9BA848;}
</style>
<g>
	<g>
		<path class="st0" d="M98.56,35.7c-0.31-0.7,0.26-1.12,0.29-1.59c-0.83,0-1.67-0.02-2.5,0.01c-1.33,0.04-2.65,0.13-3.98,0.18
			c-0.46,0.01-0.42-0.44-0.55-0.72c-0.02-0.05,0-0.13,0-0.19c-0.47,0.23-0.87-0.03-1.29-0.12c-0.11-0.03-0.1-0.19-0.09-0.29
			c0.13-0.96-0.35-1.63-0.99-2.27c-0.85-0.85-1.63-1.78-2.46-2.67c-0.14-0.15-0.16-0.28-0.09-0.46c0.23-0.62,0.44-1.24,0.65-1.86
			c0.22-0.66,0.02-0.92-0.65-0.83c-0.66,0.09-1.3-0.23-1.64-0.8c-0.17-0.29-0.16-0.56,0-0.84c0.16-0.28,0.4-0.42,0.73-0.42
			c0.66,0,1.25,0.4,1.51,1.02c0.27,0.63,0.6,0.67,1.05,0.15c0.41-0.48,0.83-0.95,1.23-1.44c0.14-0.17,0.27-0.23,0.51-0.18
			c1.48,0.35,2.96,0.66,4.44,1c0.3,0.07,0.55,0.06,0.8-0.11c0.1-0.07,0.21-0.14,0.32-0.16c0.3-0.06,0.56-0.59,0.92-0.1
			c0.2,0.27,0.54,0.45,0.53,0.88c0.26-0.24,0.55-0.18,0.82-0.19c0.22-0.01,0.24,0.19,0.31,0.32c0.94,1.8,1.87,3.59,2.81,5.39
			c0.04,0.08,0.09,0.16,0.16,0.29c0.23-0.29,0.43-0.55,0.63-0.81c0.07-0.08,0.13-0.18,0.21-0.24c0.09-0.06,0.23-0.15,0.33-0.06
			c0.11,0.1-0.03,0.2-0.07,0.28c-0.32,0.56-0.64,1.12-0.97,1.67c-0.07,0.12-0.12,0.3-0.32,0.21c-0.15-0.07-0.41-0.03-0.38-0.32
			c0.01-0.13-0.07-0.23-0.14-0.32c-0.87-1.21-1.76-2.41-2.62-3.63c-0.18-0.25-0.29-0.22-0.49-0.04c-0.43,0.38-0.85,0.79-1.33,1.1
			c-0.82,0.53-1.15,1.42-1.57,2.19c-0.29,0.54-0.26,1.25-0.38,1.88c-0.05,0.26-0.07,0.53-0.13,0.79c-0.05,0.22,0.01,0.29,0.22,0.31
			c1.51,0.15,3.01,0.32,4.52,0.48c0.28,0.03,0.59-0.23,0.83,0.12c0.05,0.08,0.13,0.12,0.07,0.24C99.4,34.25,99,34.94,98.56,35.7z
			 M88.47,27.94c-0.01,0.02-0.02,0.05-0.04,0.07c0.75,0.93,1.48,1.87,2.27,2.77c0.39,0.44,0.5,0.87,0.4,1.43
			c-0.11,0.63-0.08,0.62,0.49,0.88c0.25,0.11,0.31,0.04,0.36-0.19c0.16-0.82,0.33-1.63,0.49-2.44c0.18-0.9,0.18-0.9-0.69-1.24
			C90.66,28.79,89.57,28.37,88.47,27.94z M90.9,23.6c0.07,0.08,0.09,0.13,0.13,0.16c1.05,0.85,2.11,1.7,3.16,2.55
			c0.17,0.14,0.28,0.14,0.44-0.01c0.76-0.69,1.53-1.38,2.31-2.06c0.21-0.18,0.18-0.25-0.02-0.43c-0.33-0.29-0.6-0.34-0.92-0.02
			c-0.12,0.12-0.3,0.19-0.42,0.31c-0.21,0.19-0.43,0.21-0.7,0.16C93.57,24.03,92.26,23.82,90.9,23.6z"/>
		<path class="st0" d="M91.82,42.86c0.01-0.6,0.26-0.86,0.82-0.84c2.04,0.09,4.07,0.19,6.11,0.29c0.04,0,0.08-0.01,0.12-0.01
			c-0.03-0.55-0.58-0.98-0.37-1.57c0.16-0.04,0.18,0.07,0.23,0.15c0.34,0.58,0.67,1.16,1,1.74c0.05,0.09,0.2,0.2,0.06,0.31
			c-0.13,0.11-0.24,0.33-0.42,0.26c-0.49-0.19-0.96-0.01-1.43,0.03c-1.16,0.09-2.32,0.25-3.48,0.36c-0.24,0.02-0.35,0.05-0.29,0.35
			c0.15,0.72,0.26,1.45,0.37,2.18c0.05,0.3,0.14,0.57,0.34,0.8c0.36,0.43,0.45,1.04,0.89,1.42c0.62,0.53,1.26,1.05,1.88,1.58
			c0.16,0.13,0.23,0.15,0.37-0.03c0.89-1.25,1.79-2.48,2.69-3.72c0.07-0.1,0.12-0.2,0.12-0.33c-0.02-0.24,0.2-0.21,0.34-0.27
			c0.12-0.06,0.23-0.05,0.31,0.09c0.38,0.67,0.76,1.33,1.13,1.99c0.01,0.02-0.01,0.05-0.02,0.09c-0.2,0.02-0.35-0.04-0.47-0.21
			c-0.12-0.16-0.25-0.32-0.37-0.48c-0.35-0.45-0.34-0.45-0.6,0.04c-0.87,1.67-1.73,3.34-2.6,5c-0.32,0.61-0.67,0.71-1.26,0.35
			c0,0.51-0.46,0.72-0.71,1.06c-0.04,0.06-0.12,0.04-0.19,0.01c-0.05-0.02-0.1-0.04-0.14-0.07c-0.76-0.61-1.57-0.54-2.45-0.3
			c-1.11,0.31-2.25,0.51-3.37,0.78c-0.31,0.08-0.51,0.03-0.72-0.23c-0.39-0.5-0.82-0.96-1.23-1.44c-0.39-0.45-0.74-0.39-0.96,0.15
			c-0.27,0.66-0.84,1.06-1.52,1.07c-0.32,0-0.57-0.12-0.74-0.4c-0.17-0.29-0.19-0.58,0-0.87c0.38-0.58,0.91-0.85,1.61-0.77
			c0.7,0.08,0.89-0.16,0.67-0.83c-0.2-0.58-0.38-1.18-0.61-1.75c-0.11-0.29-0.05-0.46,0.14-0.67c0.95-1.02,1.86-2.08,2.84-3.08
			c0.37-0.38,0.49-0.79,0.51-1.29c0.01-0.26-0.11-0.62,0.11-0.76c0.27-0.17,0.64-0.17,0.97-0.24c0.1-0.02,0.16,0.08,0.24,0.12
			c0.03,0.02,0.04,0.09,0.1,0.06C91.86,42.97,91.83,42.9,91.82,42.86z M88.53,48.31c1.3-0.5,2.6-0.99,3.91-1.49
			c0.16-0.06,0.2-0.16,0.16-0.31c-0.22-1.06-0.44-2.12-0.66-3.19c-0.03-0.16-0.08-0.22-0.27-0.14c-0.65,0.25-0.67,0.24-0.56,0.95
			c0.08,0.52-0.02,0.93-0.38,1.35c-0.78,0.9-1.5,1.85-2.25,2.78c-0.01,0.02-0.03,0.05-0.04,0.07C88.47,48.33,88.5,48.32,88.53,48.31
			z M90.93,52.63c0.01,0.02,0.01,0.04,0.02,0.07c1.21-0.2,2.43-0.39,3.64-0.61c0.44-0.08,0.8-0.06,1.19,0.24
			c0.64,0.51,0.67,0.48,1.32,0.01c0.03-0.02,0.04-0.06,0.06-0.09c-0.85-0.76-1.69-1.51-2.53-2.26c-0.1-0.09-0.17-0.23-0.36-0.08
			C93.16,50.84,92.04,51.73,90.93,52.63z"/>
		<path class="st0" d="M130.29,33.48c-0.07,0.68-0.28,0.83-0.93,0.8c-1.62-0.09-3.24-0.15-4.86-0.21c-0.41-0.01-0.82-0.12-1.24-0.04
			c0.01,0.54,0.6,0.97,0.29,1.67c-0.41-0.71-0.77-1.34-1.14-1.97c-0.16-0.28-0.09-0.5,0.21-0.61c0.04-0.01,0.08-0.03,0.12-0.02
			c1.24,0.19,2.44-0.2,3.66-0.25c0.44-0.02,0.88-0.1,1.32-0.13c0.21-0.01,0.27-0.07,0.23-0.29c-0.16-0.86-0.29-1.72-0.44-2.58
			c-0.06-0.34-0.36-0.56-0.49-0.87c-0.52-1.24-1.74-1.78-2.64-2.65c-0.21-0.2-0.27,0.07-0.35,0.18c-0.8,1.09-1.6,2.19-2.39,3.29
			c-0.14,0.19-0.36,0.36-0.36,0.61c-0.01,0.22-0.13,0.25-0.29,0.32c-0.18,0.07-0.29,0.05-0.39-0.13c-0.34-0.61-0.69-1.21-1.04-1.82
			c-0.04-0.06-0.12-0.13-0.03-0.21c0.06-0.05,0.12,0,0.19,0.01c0.15,0.02,0.23,0.13,0.31,0.24c0.21,0.27,0.43,0.55,0.64,0.82
			c0.16-0.06,0.18-0.21,0.23-0.32c0.9-1.72,1.8-3.45,2.69-5.18c0.29-0.55,0.71-0.64,1.23-0.23c-0.04-0.55,0.44-0.75,0.69-1.1
			c0.04-0.06,0.12-0.05,0.18-0.01c0.05,0.03,0.1,0.04,0.14,0.08c0.76,0.59,1.56,0.55,2.45,0.3c1.16-0.33,2.35-0.53,3.53-0.81
			c0.22-0.05,0.35,0,0.48,0.16c0.4,0.49,0.82,0.96,1.23,1.44c0.49,0.56,0.8,0.51,1.11-0.16c0.28-0.62,0.78-0.94,1.45-0.98
			c0.34-0.02,0.6,0.12,0.77,0.41c0.17,0.29,0.17,0.58-0.01,0.87c-0.35,0.56-1,0.87-1.66,0.77c-0.58-0.09-0.84,0.19-0.66,0.76
			c0.2,0.64,0.41,1.28,0.66,1.9c0.1,0.24,0.04,0.38-0.13,0.56c-1.01,1.09-2,2.21-3.02,3.29c-0.26,0.28-0.35,0.57-0.35,0.94
			c0,0.98-0.01,0.97-0.95,1.15c-0.15,0.03-0.26,0.01-0.37-0.08c-0.03-0.02-0.05-0.1-0.1-0.05
			C130.25,33.36,130.28,33.43,130.29,33.48z M133.7,27.99c-0.05-0.01-0.08-0.03-0.1-0.02c-1.31,0.5-2.62,1.01-3.94,1.51
			c-0.16,0.06-0.18,0.15-0.15,0.31c0.22,1.07,0.44,2.15,0.66,3.23c0.02,0.08,0,0.18,0.16,0.15c0.52-0.1,0.72-0.34,0.67-0.88
			c-0.01-0.11-0.01-0.21-0.03-0.32c-0.07-0.41,0.05-0.73,0.32-1.05C132.12,29.96,132.9,28.97,133.7,27.99z M124.95,24.04
			c0.86,0.77,1.73,1.54,2.59,2.32c0.17,0.15,0.26,0.04,0.37-0.05c0.58-0.47,1.17-0.95,1.75-1.42c0.51-0.41,1.01-0.82,1.61-1.3
			c-1.35,0.22-2.58,0.4-3.8,0.62c-0.44,0.08-0.78,0.04-1.15-0.24c-0.68-0.52-0.7-0.5-1.36,0.01C124.97,23.99,124.97,24,124.95,24.04
			z"/>
		<path class="st0" d="M124.85,52.38c-0.54,0.41-0.96,0.32-1.25-0.23c-0.89-1.7-1.77-3.4-2.66-5.11c-0.07-0.13-0.14-0.25-0.21-0.38
			c-0.48,0.29-0.55,1.01-1.31,1.11c0.44-0.77,0.84-1.46,1.24-2.15c0.07-0.13,0.18-0.1,0.28-0.06c0.13,0.06,0.33,0.03,0.33,0.23
			c-0.01,0.23,0.14,0.37,0.25,0.53c0.84,1.16,1.69,2.32,2.52,3.49c0.15,0.21,0.24,0.26,0.45,0.07c0.63-0.55,1.27-1.07,1.92-1.6
			c0.27-0.22,0.31-0.56,0.51-0.81c0.86-1.09,0.74-2.45,1.04-3.7c0.04-0.17-0.05-0.17-0.17-0.18c-1.55-0.16-3.09-0.33-4.64-0.49
			c-0.25-0.03-0.54,0.24-0.77-0.1c-0.07-0.11-0.14-0.17-0.06-0.31c0.39-0.67,0.78-1.34,1.21-2.09c0.33,0.69-0.28,1.13-0.29,1.68
			c1.28-0.05,2.57-0.11,3.85-0.16c0.88-0.04,1.77-0.08,2.65-0.12c0.3-0.01,0.56,0.45,0.53,0.94c0.45-0.3,0.86,0.01,1.29,0.07
			c0.13,0.02,0.12,0.17,0.11,0.27c-0.15,0.98,0.33,1.66,0.99,2.31c0.86,0.85,1.63,1.78,2.46,2.67c0.14,0.15,0.15,0.28,0.09,0.46
			c-0.23,0.62-0.44,1.24-0.64,1.86c-0.2,0.62,0.02,0.89,0.67,0.82c0.72-0.08,1.33,0.22,1.66,0.82c0.29,0.54-0.08,1.2-0.69,1.22
			c-0.68,0.03-1.3-0.38-1.58-1.04c-0.23-0.57-0.57-0.63-0.98-0.18c-0.45,0.5-0.89,1-1.32,1.52c-0.15,0.18-0.29,0.22-0.51,0.16
			c-1.48-0.34-2.96-0.65-4.43-1c-0.3-0.07-0.55-0.05-0.8,0.11c-0.07,0.04-0.14,0.08-0.21,0.11c-0.81,0.42-0.8,0.42-1.4-0.29
			C124.82,52.72,124.84,52.58,124.85,52.38z M131.1,52.66c0.03,0.04,0.06,0.05,0.09,0.01c-0.02-0.02-0.04-0.03-0.06-0.05
			c-1.1-0.9-2.2-1.79-3.3-2.7c-0.1-0.08-0.17-0.1-0.27,0c-0.87,0.78-1.75,1.56-2.63,2.35c0.71,0.56,0.71,0.56,1.41,0.06
			c0.08-0.05,0.16-0.1,0.23-0.16c0.18-0.15,0.36-0.17,0.59-0.13C128.48,52.26,129.79,52.46,131.1,52.66z M133.65,48.36
			c0.02-0.02,0.03-0.03,0.05-0.05c-0.74-0.9-1.44-1.83-2.22-2.7c-0.42-0.47-0.58-0.93-0.48-1.55c0.1-0.63,0.06-0.62-0.55-0.87
			c-0.19-0.08-0.24-0.04-0.28,0.16c-0.21,1.05-0.42,2.1-0.65,3.15c-0.04,0.18-0.01,0.27,0.16,0.33
			C131,47.34,132.32,47.85,133.65,48.36z"/>
		<path class="st0" d="M111.71,56.58c0.13-0.02,0.27-0.01,0.4-0.05c0.82-0.29,1.64-0.6,2.46-0.89c0.19-0.07,0.22-0.13,0.14-0.31
			c-0.64-1.41-1.26-2.81-1.89-4.22c-0.1-0.22-0.46-0.32-0.28-0.67c0.07-0.13,0.09-0.23,0.27-0.23c0.7,0.01,1.4,0,2.1,0
			c0.07,0,0.19-0.03,0.19,0.08c0,0.06-0.07,0.14-0.13,0.19c-0.25,0.19-0.57,0.11-0.85,0.19c-0.16,0.05-0.35-0.01-0.52,0.13
			c0.85,1.33,1.7,2.67,2.55,4c0.27,0.43,0.55,0.86,0.82,1.29c0.25,0.4,0.15,0.79-0.27,1.05c-0.04,0.03-0.09,0.04-0.16,0.07
			c0.47,0.27,0.41,0.76,0.58,1.15c0.05,0.12-0.1,0.19-0.19,0.22c-0.93,0.38-1.27,1.15-1.51,2.06c-0.3,1.13-0.7,2.23-1.04,3.34
			c-0.08,0.26-0.21,0.36-0.47,0.41c-0.63,0.11-1.27,0.24-1.9,0.37c-0.6,0.12-0.71,0.45-0.34,0.92c0.43,0.55,0.49,1.15,0.19,1.77
			c-0.16,0.33-0.41,0.51-0.8,0.5c-0.37-0.01-0.61-0.19-0.75-0.5c-0.3-0.65-0.23-1.25,0.22-1.81c0.33-0.41,0.21-0.76-0.3-0.87
			c-0.64-0.13-1.29-0.27-1.93-0.38c-0.29-0.05-0.43-0.16-0.52-0.45c-0.43-1.4-0.89-2.79-1.31-4.19c-0.1-0.34-0.26-0.61-0.58-0.76
			c-0.07-0.03-0.14-0.09-0.2-0.13c-0.7-0.46-0.75-0.66-0.36-1.4c0.07-0.13,0.23-0.13,0.31-0.28c-0.27-0.03-0.36-0.25-0.5-0.43
			c-0.18-0.21-0.14-0.38,0.01-0.6c1.08-1.67,2.14-3.35,3.21-5.02c0.26-0.4,0.25-0.4-0.2-0.46c-0.21-0.03-0.42-0.07-0.64-0.08
			c-0.22-0.02-0.36-0.13-0.48-0.31c0.12-0.14,0.27-0.07,0.39-0.08c0.6-0.01,1.21-0.01,1.81,0c0.14,0,0.32-0.06,0.36,0.15
			c0.04,0.18,0.18,0.39-0.09,0.53c-0.14,0.08-0.17,0.24-0.23,0.37c-0.59,1.32-1.18,2.65-1.78,3.96c-0.12,0.26-0.08,0.36,0.19,0.46
			c0.76,0.26,1.52,0.54,2.27,0.83c0.17,0.06,0.34,0.07,0.51,0.08C110.85,56.71,111.28,56.71,111.71,56.58z M108.52,62.84
			c0.02,0,0.05-0.01,0.07-0.01c0.21-1.33,0.41-2.67,0.63-4c0.05-0.32,0.01-0.46-0.33-0.56c-0.86-0.25-1.71-0.56-2.56-0.84
			c-0.59-0.2-0.58-0.19-0.66,0.42c-0.03,0.23,0.04,0.35,0.25,0.43c0.21,0.08,0.41,0.21,0.62,0.29c0.32,0.11,0.48,0.32,0.6,0.64
			C107.58,60.42,108.05,61.63,108.52,62.84z M113.52,62.83c0.02,0,0.05,0.01,0.07,0.01c0.42-1.1,0.86-2.19,1.25-3.3
			c0.19-0.54,0.46-0.91,1.02-1.12c0.64-0.24,0.62-0.28,0.53-0.95c-0.03-0.21-0.11-0.2-0.26-0.15c-1.03,0.35-2.06,0.69-3.09,1.03
			c-0.15,0.05-0.22,0.11-0.19,0.29C113.08,60.03,113.3,61.43,113.52,62.83z"/>
		<path class="st0" d="M113.39,23.97c0,0,0-0.03,0-0.03c0.05-0.04,0.12-0.07,0.15-0.13c0.45-0.97,0.9-1.95,1.34-2.92
			c0.06-0.13-0.01-0.17-0.12-0.17c-0.67-0.24-1.34-0.46-2.01-0.72c-0.48-0.19-0.97-0.22-1.48-0.27c-1.39-0.13-2.54,0.58-3.78,0.96
			c-0.18,0.05-0.15,0.15-0.09,0.27c0.64,1.42,1.27,2.84,1.91,4.26c0.09,0.21,0.42,0.31,0.27,0.64c-0.07,0.15-0.11,0.25-0.3,0.25
			c-0.69-0.01-1.37,0-2.06-0.01c-0.07,0-0.18,0.04-0.21-0.06c-0.04-0.12,0.08-0.15,0.14-0.22c0.09-0.1,0.22-0.09,0.34-0.11
			c0.34-0.05,0.68-0.1,1.07-0.16c-0.89-1.39-1.75-2.75-2.61-4.11c-0.25-0.4-0.51-0.79-0.76-1.19c-0.29-0.45-0.19-0.81,0.28-1.1
			c0.03-0.02,0.06-0.04,0.11-0.07c-0.44-0.26-0.4-0.75-0.55-1.14c-0.04-0.12,0.1-0.19,0.19-0.23c0.91-0.37,1.27-1.12,1.5-2.02
			c0.29-1.13,0.7-2.23,1.04-3.34c0.08-0.26,0.18-0.4,0.48-0.44c0.65-0.1,1.29-0.24,1.93-0.38c0.56-0.12,0.68-0.47,0.33-0.91
			c-0.45-0.56-0.51-1.28-0.15-1.88c0.33-0.57,1.12-0.57,1.45,0c0.35,0.6,0.29,1.32-0.16,1.88c-0.35,0.44-0.23,0.78,0.33,0.91
			c0.63,0.14,1.26,0.27,1.89,0.37c0.28,0.04,0.41,0.16,0.49,0.43c0.42,1.39,0.88,2.76,1.3,4.15c0.11,0.37,0.27,0.66,0.62,0.83
			c0.11,0.05,0.21,0.12,0.3,0.2c0.23,0.19,0.69,0.24,0.43,0.72c-0.15,0.28-0.09,0.68-0.49,0.83c0.11,0.08,0.22,0.14,0.3,0.22
			c0.37,0.4,0.38,0.52,0.07,1c-1.11,1.74-2.22,3.48-3.35,5.25c0.16,0.04,0.28,0.07,0.41,0.1c0.2,0.26,0.54,0.15,0.86,0.31
			c-0.64,0-1.2-0.02-1.75,0.01c-0.39,0.02-0.5-0.15-0.48-0.5c0,0,0.03-0.01,0.03-0.01c0.09,0,0.12-0.06,0.14-0.14c0,0,0-0.01,0-0.01
			C113.14,24.94,113.29,24.47,113.39,23.97z M113.54,13.33c-0.24,1.53-0.46,2.94-0.69,4.35c-0.02,0.15,0.02,0.23,0.15,0.27
			c1.11,0.37,2.21,0.73,3.34,1.11c0.03-0.23,0.03-0.43,0.09-0.62c0.06-0.22-0.02-0.34-0.22-0.39c-0.9-0.24-1.35-0.88-1.55-1.75
			c-0.05-0.22-0.16-0.43-0.24-0.64C114.15,14.92,113.86,14.18,113.54,13.33z M108.58,13.45c-0.14,0.1-0.15,0.22-0.19,0.33
			c-0.38,0.97-0.79,1.94-1.11,2.93c-0.2,0.61-0.53,1-1.13,1.22c-0.56,0.21-0.54,0.25-0.44,0.86c0.04,0.23,0.11,0.25,0.31,0.18
			c1-0.34,2.01-0.68,3.01-1c0.2-0.06,0.23-0.16,0.19-0.35c-0.08-0.39-0.13-0.79-0.19-1.19C108.89,15.44,108.74,14.46,108.58,13.45z"
			/>
	</g>
	<path class="st0" d="M13.53,20.96l9.74,28.88l9.63-28.88h5.15L25.67,54.87H20.8L8.45,20.96H13.53z"/>
	<path class="st0" d="M49.2,20.96h5.36l9.75,16.3l9.75-16.3h5.4L66.62,41.21v13.66h-4.59V41.21L49.2,20.96z"/>
	<path class="st0" d="M146.9,20.96h6.58l9.75,28.67l9.68-28.67h6.53v33.91h-4.39V34.86c0-0.69,0.01-1.84,0.05-3.44
		c0.03-1.6,0.05-3.32,0.05-5.15l-9.68,28.6h-4.55l-9.77-28.6v1.04c0,0.83,0.02,2.1,0.07,3.8c0.05,1.7,0.07,2.95,0.07,3.75v20.01
		h-4.39V20.96z"/>
</g>
</svg>
